<svg width="91" height="92" viewBox="0 0 91 92" fill="none" xmlns="http://www.w3.org/2000/svg">
<path d="M7.00816 6.63099C3.50155 6.63099 0.65918 3.78852 0.65918 0.281769H7.00816V6.63099Z" fill="white"/>
<path d="M21.0016 9.94879C15.6627 9.94879 11.335 5.62091 11.335 0.281769H21.0016V9.94879Z" fill="white"/>
<path d="M21.011 20.4657C17.5947 20.4657 14.826 17.6957 14.826 14.2805H21.011V20.4657Z" fill="white"/>
<path d="M35.0006 13.0052C27.9743 13.0052 22.2776 7.30833 22.2776 0.281769H35.0006V13.0052Z" fill="white"/>
<path d="M35.0071 24.2327C29.5113 24.2327 25.0552 19.7765 25.0552 14.2805H35.0071V24.2327Z" fill="white"/>
<path d="M35.0055 35.1517C31.2101 35.1517 28.1325 32.0752 28.1325 28.2785H35.0055V35.1517Z" fill="white"/>
<path d="M49.0034 14.203C41.3153 14.203 35.0827 7.97023 35.0827 0.281769H49.0034V14.203Z" fill="white"/>
<path d="M49.0008 27.0609C41.9424 27.0609 36.2208 21.3391 36.2208 14.2805H49.0008V27.0609Z" fill="white"/>
<path d="M49.0007 39.0803C43.0356 39.0803 38.1993 34.2439 38.1993 28.2785H49.0007V39.0803Z" fill="white"/>
<path d="M49.0062 49.4309C45.0552 49.4309 41.8527 46.2284 41.8527 42.2772H49.0062V49.4309Z" fill="white"/>
<path d="M63 13.8703C55.4948 13.8703 49.412 7.78604 49.412 0.281769H63V13.8703Z" fill="white"/>
<path d="M62.998 28.2195C55.3003 28.2195 49.0595 21.9785 49.0595 14.2805H62.998V28.2195Z" fill="white"/>
<path d="M63.0037 41.1991C55.8681 41.1991 50.0835 35.4144 50.0835 28.2785H63.0037V41.1991Z" fill="white"/>
<path d="M63.0054 53.085C57.0367 53.085 52.198 48.2462 52.198 42.2772H63.0054V53.085Z" fill="white"/>
<path d="M63.0034 63.6221C58.9466 63.6221 55.6574 60.3329 55.6574 56.2759H63.0034V63.6221Z" fill="white"/>
<path d="M76.9984 11.4081C70.8538 11.4081 65.8726 6.4266 65.8726 0.281769H76.9984V11.4081Z" fill="white"/>
<path d="M76.9949 27.6682C69.6014 27.6682 63.6077 21.6742 63.6077 14.2805H76.9949V27.6682Z" fill="white"/>
<path d="M76.9949 42.271C69.2675 42.271 63.0037 36.0061 63.0037 28.2785H76.9949V42.271Z" fill="white"/>
<path d="M76.9977 55.4914C69.7004 55.4914 63.784 49.5747 63.784 42.2772H76.9977V55.4914Z" fill="white"/>
<path d="M77.0018 67.5626C70.7681 67.5626 65.7155 62.5087 65.7155 56.2759H77.0018V67.5626Z" fill="white"/>
<path d="M76.9961 78.0158C72.7207 78.0158 69.2545 74.5495 69.2545 70.2739H76.9961V78.0158Z" fill="white"/>
<path d="M90.9977 6.27687C87.6871 6.27687 85.0028 3.59244 85.0028 0.281769H90.9977V6.27687Z" fill="white"/>
<path d="M90.9985 24.5761C85.3126 24.5761 80.7032 19.9666 80.7032 14.2805H90.9985V24.5761Z" fill="white"/>
<path d="M90.9943 41.1326C83.8955 41.1326 78.1407 35.3775 78.1407 28.2785H90.9943V41.1326Z" fill="white"/>
<path d="M90.9949 56.2495C83.2782 56.2495 77.0231 49.9942 77.0231 42.2772H90.9949V56.2495Z" fill="white"/>
<path d="M91 69.7099C83.5804 69.7099 77.5665 63.6946 77.5665 56.2759H91V69.7099Z" fill="white"/>
<path d="M90.9975 81.4228C84.8398 81.4228 79.8491 76.4306 79.8491 70.2739H90.9975V81.4228Z" fill="white"/>
<path d="M90.9956 92.0001C86.7273 92.0001 83.2682 88.5396 83.2682 84.2724H90.9956V92.0001Z" fill="white"/>
</svg>
